<?xml version="1.0" encoding="UTF-8"?>
<svg width="415px" height="291px" viewBox="0 0 415 291" version="1.1" xmlns="http://www.w3.org/2000/svg" xmlns:xlink="http://www.w3.org/1999/xlink">
    <!-- Generator: Sketch 55.2 (78181) - https://sketchapp.com -->
    <title>ILLUSTRATION / THANK YOU</title>
    <desc>Created with Sketch.</desc>
    <g id="Web" stroke="none" stroke-width="1" fill="none" fill-rule="evenodd">
        <g id="Dashboard-Wireframe-/-Slide-Out-/-Place-Order-/-Thank-you" transform="translate(-616.000000, -199.000000)" fill-rule="nonzero">
            <g id="POPUP_ILLUSTRATION" transform="translate(335.000000, 171.000000)">
                <g id="ILLUSTRATION-/-THANK-YOU" transform="translate(277.000000, 28.000000)">
                    <ellipse id="Oval" fill="#3F3D56" cx="56" cy="314.039605" rx="56" ry="60"></ellipse>
                    <path d="M124.713475,41.66841 C132.653425,72.25677 158.267855,92.02737 181.982425,85.87168" id="Path" fill="#3F3D56"></path>
                    <path d="M181.982425,85.87168 C173.953265,54.939635 188.87057,24.35118 215.334655,17.481795" id="Path" fill="#20A8D8"></path>
                    <path d="M140.978205,40.406225 C148.520315,69.461915 166.86009,89.79705 181.982425,85.87168" id="Path" fill="#20A8D8"></path>
                    <path d="M181.982425,85.87168 C171.722925,46.3474 188.172805,7.939945 218.761165,0" id="Path" fill="#3F3D56"></path>
                    <path d="M173.057785,88.60473 C173.057785,88.60473 179.09365,86.83795 180.58842,85.0562 C182.08319,83.27445 189.204265,79.761795 190.202755,81.737875 C191.201245,83.713955 202.05021,89.779765 195.195215,91.61829 C188.34022,93.456815 178.95609,94.69144 176.83652,94.05167 C174.71695,93.4119 173.057785,88.60473 173.057785,88.60473 Z" id="Path" fill="#A8A8A8"></path>
                    <path d="M195.12858,90.85748 C188.27358,92.69602 178.88946,93.93064 176.769885,93.290865 C175.155715,92.803645 173.809525,89.901365 173.258855,88.54408 C173.131595,88.583025 173.057785,88.604725 173.057785,88.604725 C173.057785,88.604725 174.716945,93.41189 176.83652,94.051665 C178.956095,94.69144 188.340225,93.456815 195.195215,91.61828 C197.173985,91.08757 197.67579,90.20428 197.366955,89.169155 C197.25535,89.87196 196.601405,90.462475 195.12858,90.85748 Z" id="Path" fill="#000000" opacity="0.2"></path>
                    <rect id="Rectangle" fill="#F2F2F2" x="171.5" y="63.039605" width="403" height="233.5"></rect>
                    <rect id="Rectangle" fill="#20A8D8" opacity="0.3" x="181" y="133.914605" width="221" height="115.75"></rect>
                    <path d="M157.243775,203.9568 C157.243775,203.9568 165.57222,180.35954 171.58721,187.7626 C177.6022,195.16566 162.33338,207.6583 162.33338,207.6583 L157.243775,203.9568 Z" id="Path" fill="#A0616A"></path>
                    <path d="M119.259033,177.118408 C120.905201,177.983724 122.127251,179.681478 122.925184,182.21167 C124.122084,186.006958 129.944975,212.74791 130.40768,214.135985 C130.71615,215.061368 139.661515,210.434455 157.243775,200.255245 L165.57222,208.120995 C145.2138,222.927118 133.646517,231.255563 130.87037,233.10633 C126.70615,235.88248 124.39269,234.494405 120.69116,231.255565 C116.98963,228.016725 101.258125,201.180625 101.258125,201.180625 L119.259033,177.118408 Z" id="Path" fill="#355BB9"></path>
                    <path d="M26.764815,230.33018 C26.764815,230.33018 17.048315,242.360155 32.31711,261.79318 L57.765135,294.181575 C57.765135,294.181575 42.033635,319.166905 41.570935,332.122265 C41.108235,345.077625 37.869405,342.301475 36.944025,347.853765 C36.018645,353.406055 31.85442,350.629915 35.09326,354.794135 C38.3321,358.958355 50.362075,362.65989 54.063605,359.42105 C57.765135,356.18221 57.765135,352.01799 57.765135,350.167225 C57.765135,348.31646 64.242815,337.674555 64.705505,334.435725 C65.168195,331.196895 82.287775,304.82348 82.287775,304.82348 C82.287775,304.82348 87.840075,289.09198 81.362395,280.30084 C74.884715,271.5097 70.60424,259.04138 70.60424,259.04138 C70.60424,259.04138 89.69084,282.151605 103.10889,287.70388 C103.10889,287.70388 108.198495,288.62926 107.27311,290.94272 C106.347725,293.25618 107.27311,294.64425 108.661185,296.95772 C110.04926,299.27119 119.765775,326.107275 123.004615,333.04765 C126.243455,339.988025 124.85538,344.15224 128.556915,346.465695 C132.25845,348.77915 148.91533,346.92839 148.91533,344.61493 C148.91533,342.30147 146.601875,336.286485 145.2138,333.04765 C143.825725,329.808815 132.721135,292.33081 133.64652,285.85315 C134.571905,279.37549 133.183825,270.584335 126.243455,266.882805 C119.303085,263.181275 84.13854,233.106335 82.287775,233.106335 C80.43701,233.106335 26.764815,230.33018 26.764815,230.33018 Z" id="Path" fill="#2F2E41"></path>
                    <circle id="Oval" fill="#A0616A" cx="119.765775" cy="138.2546" r="19.433035"></circle>
                    <path d="M104.03427,140.105365 C104.03427,140.105365 98.01927,150.74727 90.61622,152.135365 C83.21317,153.52346 110.04926,174.807245 110.04926,174.807245 C110.04926,174.807245 116.526935,154.448825 122.07926,153.52344 C127.631585,152.598055 104.03427,140.105365 104.03427,140.105365 Z" id="Path" fill="#A0616A"></path>
                    <path d="M123.004615,183.598355 C123.004615,189.613355 104.959655,206.73292 104.959655,206.73292 L87.840075,221.076355 C87.840075,221.076355 87.37738,226.16596 85.526615,226.62865 C83.67585,227.09134 81.362395,227.09134 83.21316,229.86749 C85.063925,232.64364 89.69084,238.658625 85.526615,239.58399 C84.2712034,239.774926 83.0060845,239.895409 81.7372,239.944875 C80.6267,240.009655 79.321965,240.06981 77.85516,240.12533 C74.431285,240.245635 70.14676,240.324285 65.50595,240.29189 C64.1872367,240.28726 62.84544,240.271842 61.48056,240.245635 C43.986175,239.898635 23.72027,237.88589 25.37674,231.255545 C28.15289,220.15095 26.302125,216.44942 32.31711,210.434435 C38.332095,204.41945 48.04861,183.598335 48.04861,183.598335 C48.04861,183.598335 67.48165,150.74725 83.675845,150.74725 L87.03962,149.86349 C90.244957,149.01909 93.6310689,150.319878 95.446685,153.093095 C98.69479,158.03927 103.816815,165.470095 106.810415,167.86683 C111.437325,171.56836 112.159155,168.912515 112.159155,168.912515 C112.159155,168.912515 123.004615,177.583365 123.004615,183.598355 Z" id="Path" fill="#355BB9"></path>
                    <path d="M78.825085,253.92744 C78.825085,253.92744 92.243135,274.74855 83.91469,278.45008 C75.586245,282.15161 70.95933,256.70358 70.95933,256.70358 L78.825085,253.92744 Z" id="Path" fill="#A0616A"></path>
                    <path d="M107.061565,136.05962 C107.80738,135.965505 108.043255,135.02445 108.16879,134.28327 C108.84103,130.314185 111.79893,126.55042 115.773225,125.90969 C117.292273,125.707601 118.836959,125.832088 120.30404,126.27483 C122.405735,126.851528 124.378605,127.822595 126.11754,129.136295 C127.03534,129.830475 127.9186,130.636295 129.02273,130.960555 C129.75193,131.17471 132.848095,132.5512 133.571525,132.784105 C135.16206,133.29617 136.478265,134.960935 138.116355,134.631305 C139.68353,134.31595 140.278725,132.42352 140.53061,130.844905 C141.10445,127.248495 139.045925,121.882315 136.99925,118.869905 C135.446105,116.583905 132.81784,115.268285 130.190005,114.412405 C127.111454,113.477914 123.948231,112.849371 120.74628,112.535905 C116.42378,112.025405 111.9469,111.754565 107.80451,113.090665 C103.66212,114.426765 99.890255,117.695165 99.116945,121.97845 C98.955855,122.8707 98.925675,123.784595 98.72826,124.669515 C98.24668,126.82827 96.81834,128.642825 95.985155,130.691715 C94.7696129,133.7346 94.8981264,137.149705 96.33892,140.09263 C97.492675,142.412845 99.499055,144.642485 99.066055,147.19729 L102.63659,144.38186 C103.699814,143.777714 104.196472,142.512887 103.828395,141.346715 L103.30934,136.87591 C103.2143,136.05729 103.13153,135.17391 103.540935,134.458725 C105.12789,131.686565 105.81805,136.216525 107.061565,136.05962 Z" id="Path" fill="#2F2E41"></path>
                    <path d="M73.49664,222.001735 L77.85514,240.12535 C73.45957,240.282675 67.64364,240.36596 61.48054,240.245655 C59.925845,235.581715 58.440625,230.718825 57.302425,226.16596 C53.1382,209.50907 60.07857,184.061045 63.780105,172.03107 C67.48164,160.001095 76.7355,156.762255 76.7355,156.762255 C76.7355,156.762255 81.362415,158.15033 87.3774,162.31455 C93.392385,166.47877 73.49664,222.001735 73.49664,222.001735 Z" id="Path" fill="#000000" opacity="0.1"></path>
                    <path d="M77.19817,221.076355 L81.7372,239.944895 C80.6267,240.009675 79.321965,240.06983 77.85516,240.12535 C74.431285,240.245655 70.14676,240.324305 65.50595,240.29191 C63.8357,235.336505 62.2208,230.10807 61.00395,225.240575 C56.839725,208.583685 63.7801,183.135665 67.48163,171.105685 C71.18316,159.075705 79.28026,172.262415 79.28026,172.262415 C79.28026,172.262415 76.04142,164.396665 82.056405,168.560885 C88.07139,172.725105 77.19817,221.076355 77.19817,221.076355 Z" id="Path" fill="#000000" opacity="0.1"></path>
                    <path d="M78.586245,155.836875 C78.586245,155.836875 69.33242,159.07571 65.63089,171.105685 C61.92936,183.13566 54.988985,208.583685 59.15321,225.240575 C63.317435,241.897465 72.108565,262.718575 72.108565,262.718575 C72.108565,262.718575 80.899705,256.240895 84.138565,257.62897 L75.34743,221.076355 C75.34743,221.076355 95.24316,165.55339 89.22817,161.38917 C83.21318,157.22495 78.586245,155.836875 78.586245,155.836875 Z" id="Path" fill="#355BB9"></path>
                    <rect id="Rectangle" fill="#3F3D56" x="171.5" y="121.914605" width="221" height="115.75"></rect>
                    <ellipse id="Oval" fill="#FFFFFF" cx="286.111585" cy="182.055435" rx="25.008675" ry="25.054155"></ellipse>
                    <path d="M286.111585,152.731505 C269.604669,152.731505 256.22317,166.113004 256.22317,182.61992 C256.22317,199.126836 269.604669,212.508335 286.111585,212.508335 C302.618501,212.508335 316,199.126836 316,182.61992 C315.951742,166.133035 302.59847,152.779763 286.111585,152.731505 Z M279.97584,198.555615 L264.658025,183.2378 L268.954485,178.941345 L279.99021,189.97707 L303.283055,166.68422 L307.579515,170.98068 L279.97584,198.555615 L279.97584,198.555615 Z" id="Shape" fill="#20A8D8"></path>
                </g>
            </g>
        </g>
    </g>
</svg>