<?xml version="1.0" encoding="UTF-8"?>
<svg width="24px" height="24px" viewBox="0 0 24 24" version="1.1" xmlns="http://www.w3.org/2000/svg" xmlns:xlink="http://www.w3.org/1999/xlink">
    <!-- Generator: Sketch 55.2 (78181) - https://sketchapp.com -->
    <title>ICO / place order / headphones</title>
    <desc>Created with Sketch.</desc>
    <g id="ICO-/-place-order-/-headphones" stroke="none" stroke-width="1" fill="none" fill-rule="evenodd">
        <path d="M23,11.636902 L23,14.5482113 C23,16.0912779 21.8416273,17.384753 20.3293568,17.5760614 C18.828547,19.6611558 16.8754591,21.2244335 14.3125986,21.4972878 C13.9833145,22.4011733 13.1621472,23 12.1445423,23 C10.9017721,23 9.82011354,21.9110604 9.82011354,20.6605221 C9.82011354,19.4099838 10.9017721,18.3210442 12.1445423,18.3210442 C13.0402106,18.3210442 13.8751679,18.8954146 14.2554742,19.7268138 C15.8597814,19.5046802 17.2601207,18.5220511 18.395504,17.1664742 C17.4834795,16.6169383 16.9052208,15.6326193 16.9052208,14.5481277 L16.9052208,11.6368183 C16.9052208,10.5749777 17.4602254,9.60651406 18.3472776,9.0474383 C18.2861109,5.54645559 15.4879796,2.76756276 11.9999585,2.76756276 C8.51196564,2.76756276 5.71380558,5.54650995 5.65263927,9.04744153 C6.54014512,9.60679571 7.09469606,10.5740865 7.09469606,11.6368183 L7.09469606,14.5481277 C7.09469606,16.2353373 5.72386982,17.6153911 4.04734803,17.6153911 C2.37082623,17.6153911 1,16.2353373 1,14.5481277 L1,11.6368183 C1,9.99132633 2.30374543,8.63803919 3.92340087,8.571996 C4.23383685,4.36806758 7.79266903,1 12.0001246,1 C16.2075381,1 19.7662472,4.36802484 20.0767625,8.57199613 C21.6963471,8.63804125 23,9.99134178 23,11.636902 Z M5.33784794,14.5481277 L5.33784794,11.6368183 C5.33784794,10.8493898 4.829001,10.3371177 4.04743112,10.3371177 C3.26586125,10.3371177 2.75701431,10.8493898 2.75701431,11.6368183 L2.75701431,14.5481277 C2.75701431,15.3355561 3.26586125,15.8478283 4.04743112,15.8478283 C4.829001,15.8478283 5.33784794,15.3355561 5.33784794,14.5481277 Z M12.1446254,21.2338594 C12.4923606,21.2338594 12.712123,21.0126177 12.712123,20.6619442 C12.712123,20.3112198 12.4923932,20.0900291 12.1446254,20.0900291 C11.7968396,20.0900291 11.5771278,20.311238 11.5771278,20.6619442 C11.5771278,21.0126686 11.7968576,21.2338594 12.1446254,21.2338594 Z M21.2431519,14.5481277 L21.2431519,11.6368183 C21.2431519,10.8493898 20.7343049,10.3371177 19.9527351,10.3371177 C19.1711652,10.3371177 18.6623183,10.8493898 18.6623183,11.6368183 L18.6623183,14.5481277 C18.6623183,15.3355561 19.1711652,15.8478283 19.9527351,15.8478283 C20.7343049,15.8478283 21.2431519,15.3355561 21.2431519,14.5481277 Z" fill="#20A8D8"></path>
    </g>
</svg>