<?xml version="1.0" encoding="UTF-8"?>
<svg width="24px" height="24px" viewBox="0 0 24 24" version="1.1" xmlns="http://www.w3.org/2000/svg" xmlns:xlink="http://www.w3.org/1999/xlink">
    <!-- Generator: Sketch 55.2 (78181) - https://sketchapp.com -->
    <title>ICO / place order / rocket</title>
    <desc>Created with Sketch.</desc>
    <g id="ICO-/-place-order-/-rocket" stroke="none" stroke-width="1" fill="none" fill-rule="evenodd">
        <path d="M18.332834,13.7914641 L19.0603701,18.1568644 C19.1125309,18.4699218 18.9711948,18.7836236 18.7021036,18.951984 L12.4164187,22.8805313 C12.1061696,23.0743967 11.7032004,23.0284509 11.4445137,22.7697642 L10.4285966,21.7538472 L10.1960135,21.9840824 C9.88921727,22.2908326 9.39187044,22.2908326 9.08502821,21.9840824 L8.70001373,21.5990679 L6.06549812,22.9174997 C5.95638843,22.9718704 5.83618362,23 5.71427541,23 L1.7857281,23 C1.35177539,23 1,22.6482243 1,22.2142716 L1,18.2857244 C1,18.1638162 1.02812935,18.0436113 1.08250004,17.9345017 L2.40088577,15.2975921 L2.01587128,14.9125776 C1.70916717,14.6057815 1.70916717,14.1084346 2.01587128,13.8015924 L2.24610654,13.5714032 L1.23018944,12.5554861 C0.971502799,12.2968455 0.925557031,11.8938302 1.11942239,11.5835812 L5.04801574,5.29785035 C5.21789538,5.03060067 5.53035423,4.88981694 5.84313534,4.93958385 L10.2085357,5.66716592 C13.4828853,2.65988194 17.7684561,0.993910512 22.2142386,1.00001673 C22.6481913,1.00001673 22.9999833,1.3518087 22.9999833,1.78576141 C23.0060895,6.23154384 21.340118,10.5171146 18.332834,13.7914641 Z M6.10242047,6.57862314 L2.78355233,11.8860959 L3.35713782,12.460464 L8.79347055,7.02726192 L6.10242047,6.57862314 Z M5.52883498,21.4285898 L7.53083665,20.4275429 L5.71427541,18.6109817 L4.69835832,19.6268988 C4.6920051,19.6334822 4.6855598,19.6399275 4.67902242,19.6462347 C4.36688584,19.9476905 3.86949298,19.9390354 3.56803718,19.6268988 C3.26658138,19.3147622 3.2752365,18.8173694 3.58737308,18.5159136 L4.60329017,17.4999965 L3.57241078,16.4691632 L2.57140994,18.4711648 L2.57140994,21.4285898 L5.52883498,21.4285898 Z M9.64282273,20.3175585 L16.6584837,13.3019897 C19.5259968,10.4512344 21.2212023,6.62944892 21.4096812,2.5903648 C17.370597,2.77884373 13.5488115,4.47400314 10.6980561,7.34156228 L3.68244122,14.3571771 L9.64282273,20.3175585 Z M12.113904,21.2164474 L17.4245074,17.8975793 L16.9758686,15.2065293 L11.5395358,20.6428619 L12.113904,21.2164474 Z M14.3570979,6.50003654 C16.0928627,6.50003654 17.4999634,7.90709114 17.4999634,9.64285594 C17.4999634,11.3786207 16.0928167,12.7857214 14.3570979,12.7857214 C12.6213791,12.7857214 11.2142324,11.3786668 11.2142324,9.64290197 C11.2142324,7.90713718 12.6213331,6.50003654 14.3570979,6.50003654 Z M14.3570979,11.2143117 C15.2250033,11.2143117 15.9285076,10.5107614 15.9285076,9.64290197 C15.9285076,8.77504259 15.2249573,8.07149228 14.3570979,8.07149228 C13.4892385,8.07149228 12.7856882,8.77504259 12.7856882,9.64290197 C12.7856882,10.5107614 13.4892385,11.2143117 14.3570979,11.2143117 Z" fill="#20A8D8"></path>
    </g>
</svg>