<?xml version="1.0" encoding="UTF-8"?>
<svg width="24px" height="24px" viewBox="0 0 24 24" version="1.1" xmlns="http://www.w3.org/2000/svg" xmlns:xlink="http://www.w3.org/1999/xlink">
    <!-- Generator: Sketch 55.2 (78181) - https://sketchapp.com -->
    <title>ICO / place order / transfer</title>
    <desc>Created with Sketch.</desc>
    <g id="ICO-/-place-order-/-transfer" stroke="none" stroke-width="1" fill="none" fill-rule="evenodd">
        <path d="M23.7490561,8.29837298 L17.7489525,2.25285593 C17.4141597,1.91563037 16.8714398,1.91573158 16.5367474,2.25305834 C16.3760811,2.41499138 16.2858286,2.63451186 16.2857784,2.8634953 L16.2857784,5.45442395 L10.2856748,5.45442395 C9.81226395,5.45442395 9.42850282,5.84108969 9.42850282,6.3180837 C9.42850282,6.79507771 9.81226395,7.18174345 10.2856748,7.18174345 L17.1429504,7.18174345 C17.6163613,7.18174345 18.0001224,6.79507771 18.0001224,6.3180837 L18.0001224,4.94828199 L21.9310499,8.90896175 L18.0001224,12.8696415 L18.0001224,11.4998904 C18.0001224,11.0228964 17.6163613,10.6362306 17.1429504,10.6362306 L7.71420903,10.6362306 L7.71420903,8.045302 C7.71410859,7.56830798 7.330247,7.18174345 6.85688636,7.18184466 C6.62967325,7.18189527 6.41175157,7.27283079 6.25103495,7.43471322 L0.25098159,13.4802303 C-0.0836605301,13.8175064 -0.0836605301,14.3641823 0.25098159,14.7014078 L6.25108518,20.7469249 C6.41180179,20.9089085 6.62977369,21 6.85708725,21 C6.96973955,21.0003501 7.08138737,20.9780337 7.18535093,20.9343624 C7.50557878,20.8005652 7.71430948,20.485656 7.71420903,20.1363361 L7.71420903,17.5454074 L13.7143126,17.5454074 C14.1877235,17.5454074 14.5714846,17.1587417 14.5714846,16.6817477 C14.5714846,16.2047537 14.1877235,15.8180879 13.7143126,15.8180879 L6.85708725,15.8180879 C6.38367638,15.8180879 5.99991525,16.2047537 5.99991525,16.6817477 L5.99991525,18.0514988 L2.06898781,14.090819 L5.99991525,10.1301393 L5.99991525,11.4998904 C5.99991525,11.9768844 6.38367638,12.3635501 6.85708725,12.3635501 L16.2857784,12.3635501 L16.2857784,14.9544788 C16.2858789,15.4314728 16.6697404,15.8180373 17.1431011,15.8179361 C17.3703142,15.8178855 17.5882359,15.72695 17.7489525,15.5650676 L23.7490561,9.51955052 C24.083648,9.18227436 24.083648,8.63559853 23.7490561,8.29837298 Z" fill="#20A8D8"></path>
    </g>
</svg>