<svg id="Layer_1" data-name="Layer 1" xmlns="http://www.w3.org/2000/svg" viewBox="0 0 864 864"><defs><style>.cls-1{fill:#fff;}</style></defs><title>phone mifi tablet icon</title><rect x="94.22" y="208.5" width="675.56" height="447" rx="26.12" ry="26.12" transform="translate(-68.45 782.42) rotate(-80)"/><rect class="cls-1" x="138.52" y="221.84" width="592" height="391.71" transform="translate(-52.28 773.08) rotate(-80)"/><circle class="cls-1" cx="378" cy="738.25" r="14.5" transform="translate(-414.67 982.31) rotate(-80)"/><rect x="212.62" y="314.69" width="438.76" height="234.62" rx="26.12" ry="26.12" transform="translate(0 864) rotate(-90)"/><rect class="cls-1" x="267.92" y="327.44" width="328.15" height="209.12" transform="translate(0 864) rotate(-90)"/><circle class="cls-1" cx="432" cy="624.57" r="17.21"/><rect class="cls-1" x="408.29" y="243.65" width="47.41" height="8.44" rx="4.22" ry="4.22"/><circle class="cls-1" cx="432" cy="228.71" r="4.55"/><path d="M410.87,573.62a29.66,29.66,0,0,1-28.59-22L329.11,353.24A29.66,29.66,0,0,1,350.05,317l95.39-25.56a29.59,29.59,0,0,1,36.28,20.95l53.17,198.42A29.62,29.62,0,0,1,513.95,547L418.55,572.6A29.71,29.71,0,0,1,410.87,573.62Z"/><path class="cls-1" d="M453.13,289.38v2a28.65,28.65,0,0,1,27.63,21.22L533.93,511a28.62,28.62,0,0,1-20.24,35.05L418.3,571.64a28.59,28.59,0,0,1-35.05-20.24L330.07,353a28.62,28.62,0,0,1,20.24-35.05l95.39-25.56a28.72,28.72,0,0,1,7.43-1v-2m0,0a30.67,30.67,0,0,0-7.94,1.05L349.8,316a30.62,30.62,0,0,0-21.65,37.5l53.17,198.42a30.59,30.59,0,0,0,37.5,21.65L514.2,548a30.62,30.62,0,0,0,21.65-37.5L482.69,312.08a30.63,30.63,0,0,0-29.56-22.7Z"/><rect class="cls-1" x="369.44" y="410.98" width="207.41" height="20" rx="10" ry="10" transform="translate(757.32 -145) rotate(75)"/><path class="cls-1" d="M403.82,420.66a47.86,47.86,0,0,1,36.72,5l6-10.39a60,60,0,0,0-82.43,22.09l10.39,6A47.86,47.86,0,0,1,403.82,420.66Z"/><path class="cls-1" d="M410,443.85a23.93,23.93,0,0,1,18.5,2.57l6-10.4a36,36,0,0,0-49.64,13.3l10.4,6A23.93,23.93,0,0,1,410,443.85Z"/><path class="cls-1" d="M422.54,456.82a12,12,0,0,0-16.84,4.51l10.68,6.16Z"/></svg>